# xmcd
#
# Track frame offsets:
#	150
#	15323
#	30420
#	50593
#	64528
#	81430
#	98060
#	116653
#	132310
#	146220
#	172510
#	189905
#
# Disc length: 2720 seconds
#
# Revision: 0
# Processed by: cddbd v1.5.2PL0 Copyright (c) Steve Scherf et al.
# Submitted via: audiograbber 1.83.01
#
DISCID=930a9e0c
DTITLE=The Del Fuegos - Smoking In The Fields
DYEAR=1989
DGENRE=Rock
TTITLE0=Move With Me Sister
TTITLE1=Down In Allen's Mills
TTITLE2=I'm Inside You
TTITLE3=Headlights
TTITLE4=Breakaway
TTITLE5=Dreams Of You
TTITLE6=The Offer
TTITLE7=Part Of This Earth
TTITLE8=Stand By You
TTITLE9=Lost Weekend
TTITLE10=No No Never
TTITLE11=Friends Again
EXTD=
EXTT0=
EXTT1=
EXTT2=
EXTT3=
EXTT4=
EXTT5=
EXTT6=
EXTT7=
EXTT8=
EXTT9=
EXTT10=
EXTT11=
PLAYORDER=
